<?xml version="1.0" encoding="UTF-8"?>
<svg id="_图层_1" data-name="图层 1" xmlns="http://www.w3.org/2000/svg" viewBox="0 0 791.65 145.77">
  <defs>
    <style>
      .cls-1 {
        fill: #fff;
      }

      .cls-2 {
        fill: #006934;
      }

      .cls-3, .cls-4 {
        fill: #0052d9;
      }

      .cls-4 {
        font-family: AdobeSongStd-Light-GBpc-EUC-H, 'Adobe Song Std';
        font-size: 103.98px;
        font-weight: 300;
      }
    </style>
  </defs>
  <g>
    <g>
      <polygon class="cls-2" points="66.21 136.5 14.37 112.38 14.37 0 66.21 24.13 66.21 136.5"/>
      <polyline class="cls-2" points="126.5 0 74.66 24.13 74.66 136.5 126.5 112.38"/>
      <polygon class="cls-3" points="69.96 145.77 0 121.64 0 9.26 69.96 33.39 69.96 145.77"/>
      <polygon class="cls-3" points="141.73 9.26 71.77 33.39 71.77 145.77 141.73 121.64 141.73 9.26"/>
    </g>
    <g>
      <path class="cls-1" d="M60.94,70.54L6.2,49.29c-.68,0-1.24-.55-1.24-1.24v-4.27c0-.68,.55-1.24,1.24-1.24l54.74,21.26c.68,0,1.24,.55,1.24,1.24v4.27c0,.68-.55,1.24-1.24,1.24Z"/>
      <path class="cls-1" d="M60.94,84.52L6.2,63.27c-.68,0-1.24-.55-1.24-1.24v-4.27c0-.68,.55-1.24,1.24-1.24l54.74,21.26c.68,0,1.24,.55,1.24,1.24v4.27c0,.68-.55,1.24-1.24,1.24Z"/>
      <path class="cls-1" d="M60.94,98.51L6.2,77.25c-.68,0-1.24-.55-1.24-1.24v-4.27c0-.68,.55-1.24,1.24-1.24l54.74,21.26c.68,0,1.24,.55,1.24,1.24v4.27c0,.68-.55,1.24-1.24,1.24Z"/>
      <path class="cls-1" d="M60.94,112.49L6.2,91.23c-.68,0-1.24-.55-1.24-1.24v-4.27c0-.68,.55-1.24,1.24-1.24l54.74,21.26c.68,0,1.24,.55,1.24,1.24v4.27c0,.68-.55,1.24-1.24,1.24Z"/>
    </g>
    <g>
      <path class="cls-1" d="M134.89,84.56l-54.8,21.11c-.68,0-1.24,.55-1.24,1.24v4.27c-.01,.68,.54,1.24,1.22,1.24l54.8-21.11c.68,0,1.24-.55,1.24-1.24v-4.27c.01-.68-.54-1.24-1.22-1.24Z"/>
      <path class="cls-1" d="M134.93,70.58l-54.8,21.11c-.68,0-1.24,.55-1.24,1.24v4.27c-.01,.68,.54,1.24,1.22,1.24l54.8-21.11c.68,0,1.24-.55,1.24-1.24v-4.27c.01-.68-.54-1.24-1.22-1.24Z"/>
      <path class="cls-1" d="M134.97,56.6l-54.8,21.11c-.68,0-1.24,.55-1.24,1.24v4.27c-.01,.68,.54,1.24,1.22,1.24l54.8-21.11c.68,0,1.24-.55,1.24-1.24v-4.27c.01-.68-.54-1.24-1.22-1.24Z"/>
      <path class="cls-1" d="M135.01,42.62l-54.8,21.11c-.68,0-1.24,.55-1.24,1.24v4.27c-.01,.68,.54,1.24,1.22,1.24l54.8-21.11c.68,0,1.24-.55,1.24-1.24v-4.27c.01-.68-.54-1.24-1.22-1.24Z"/>
    </g>
  </g>
  <text class="cls-4" transform="translate(167.76 112.81)"><tspan x="0" y="0">教室预定系统</tspan></text>
</svg>