<?xml version="1.0" encoding="UTF-8"?>
<svg id="_图层_1" data-name="图层 1" xmlns="http://www.w3.org/2000/svg" viewBox="0 0 395.89 72.9">
  <defs>
    <style>
      .cls-1 {
        fill: #fff;
      }

      .cls-2 {
        font-family: AdobeSongStd-Light-GBpc-EUC-H, 'Adobe Song Std';
        font-size: 52px;
        font-weight: 300;
      }

      .cls-2, .cls-3 {
        fill: #0052d9;
      }

      .cls-4 {
        fill: #006934;
      }
    </style>
  </defs>
  <g>
    <g>
      <polygon class="cls-4" points="33.11 68.26 7.19 56.2 7.19 0 33.11 12.07 33.11 68.26"/>
      <polyline class="cls-4" points="63.26 0 37.33 12.07 37.33 68.26 63.26 56.2"/>
      <polygon class="cls-3" points="34.99 72.9 0 60.83 0 4.63 34.99 16.7 34.99 72.9"/>
      <polygon class="cls-3" points="70.88 4.63 35.89 16.7 35.89 72.9 70.88 60.83 70.88 4.63"/>
    </g>
    <g>
      <path class="cls-1" d="M30.47,35.28L3.1,24.65c-.34,0-.62-.28-.62-.62v-2.13c0-.34,.28-.62,.62-.62l27.38,10.63c.34,0,.62,.28,.62,.62v2.13c0,.34-.28,.62-.62,.62Z"/>
      <path class="cls-1" d="M30.47,42.27L3.1,31.64c-.34,0-.62-.28-.62-.62v-2.13c0-.34,.28-.62,.62-.62l27.38,10.63c.34,0,.62,.28,.62,.62v2.13c0,.34-.28,.62-.62,.62Z"/>
      <path class="cls-1" d="M30.47,49.26L3.1,38.63c-.34,0-.62-.28-.62-.62v-2.13c0-.34,.28-.62,.62-.62l27.38,10.63c.34,0,.62,.28,.62,.62v2.13c0,.34-.28,.62-.62,.62Z"/>
      <path class="cls-1" d="M30.47,56.25L3.1,45.62c-.34,0-.62-.28-.62-.62v-2.13c0-.34,.28-.62,.62-.62l27.38,10.63c.34,0,.62,.28,.62,.62v2.13c0,.34-.28,.62-.62,.62Z"/>
    </g>
    <g>
      <path class="cls-1" d="M67.46,42.29l-27.4,10.55c-.34,0-.62,.28-.62,.62v2.13c0,.34,.27,.62,.61,.62l27.4-10.55c.34,0,.62-.28,.62-.62v-2.13c0-.34-.27-.62-.61-.62Z"/>
      <path class="cls-1" d="M67.48,35.3l-27.4,10.55c-.34,0-.62,.28-.62,.62v2.13c0,.34,.27,.62,.61,.62l27.4-10.55c.34,0,.62-.28,.62-.62v-2.13c0-.34-.27-.62-.61-.62Z"/>
      <path class="cls-1" d="M67.5,28.31l-27.4,10.55c-.34,0-.62,.28-.62,.62v2.13c0,.34,.27,.62,.61,.62l27.4-10.55c.34,0,.62-.28,.62-.62v-2.13c0-.34-.27-.62-.61-.62Z"/>
      <path class="cls-1" d="M67.52,21.31l-27.4,10.55c-.34,0-.62,.28-.62,.62v2.13c0,.34,.27,.62,.61,.62l27.4-10.55c.34,0,.62-.28,.62-.62v-2.13c0-.34-.27-.62-.61-.62Z"/>
    </g>
  </g>
  <text class="cls-2" transform="translate(83.89 56.42)"><tspan x="0" y="0">教室预定系统</tspan></text>
</svg>